<svg width="180" height="180" viewBox="0 0 180 180" fill="none" xmlns="http://www.w3.org/2000/svg">
<rect width="180" height="180" fill="black"/>
<mask id="mask0_13_10" style="mask-type:alpha" maskUnits="userSpaceOnUse" x="0" y="0" width="180" height="180">
<rect width="180" height="180" fill="#D9D9D9"/>
</mask>
<g mask="url(#mask0_13_10)">
<path d="M33.2511 71.278L31.846 75.8221H36.5396L35.1345 71.278C35.0548 71.0986 34.9651 70.9691 34.8654 70.8894C34.7857 70.8097 34.6861 70.7698 34.5665 70.7698H33.8191C33.6995 70.7698 33.5899 70.8097 33.4903 70.8894C33.4105 70.9691 33.3308 71.0986 33.2511 71.278ZM31.5471 85.4484C31.5471 85.8271 31.4574 86.1061 31.278 86.2854C31.1186 86.4449 30.8495 86.5246 30.4708 86.5246H26.0762C25.6976 86.5246 25.4185 86.4449 25.2392 86.2854C25.0797 86.1061 25 85.8271 25 85.4484V77.556C25 76.9581 25.0897 76.2705 25.2691 75.4932C25.4684 74.716 25.7673 73.8091 26.1659 72.7728L28.7668 65.9865C28.8864 65.6477 29.0658 65.3986 29.3049 65.2392C29.564 65.0797 29.8929 65 30.2915 65H38.3333C38.712 65 39.0209 65.0797 39.2601 65.2392C39.5191 65.3986 39.7085 65.6477 39.8281 65.9865L42.429 72.7728C42.8276 73.8091 43.1165 74.716 43.2959 75.4932C43.4952 76.2705 43.5949 76.9581 43.5949 77.556V85.4484C43.5949 85.8271 43.5052 86.1061 43.3258 86.2854C43.1664 86.4449 42.8973 86.5246 42.5186 86.5246H38.0045C37.6058 86.5246 37.3069 86.4449 37.1076 86.2854C36.9282 86.1061 36.8385 85.8271 36.8385 85.4484V81.263H31.5471V85.4484Z" fill="white"/>
<path d="M58.8256 86.5246H54.3413C53.9626 86.5246 53.6836 86.4449 53.5042 86.2854C53.3448 86.1061 53.2651 85.8271 53.2651 85.4484V66.0762C53.2651 65.6976 53.3448 65.4285 53.5042 65.2691C53.6836 65.0897 53.9626 65 54.3413 65H57.4504C57.8291 65 58.148 65.0598 58.4071 65.1794C58.6861 65.299 58.9551 65.5082 59.2142 65.8072L65.0139 72.4439V66.0762C65.0139 65.6976 65.0936 65.4285 65.2531 65.2691C65.4324 65.0897 65.7115 65 66.0901 65H70.5744C70.9531 65 71.2222 65.0897 71.3816 65.2691C71.561 65.4285 71.6507 65.6976 71.6507 66.0762V85.4484C71.6507 85.8271 71.561 86.1061 71.3816 86.2854C71.2222 86.4449 70.9531 86.5246 70.5744 86.5246H66.0901C65.7115 86.5246 65.4324 86.4449 65.2531 86.2854C65.0936 86.1061 65.0139 85.8271 65.0139 85.4484V81.7713L59.9018 75.5829V85.4484C59.9018 85.8271 59.8121 86.1061 59.6328 86.2854C59.4733 86.4449 59.2043 86.5246 58.8256 86.5246Z" fill="white"/>
<path d="M89.5558 71.278L88.1508 75.8221H92.8443L91.4392 71.278C91.3595 71.0986 91.2698 70.9691 91.1702 70.8894C91.0905 70.8097 90.9908 70.7698 90.8712 70.7698H90.1239C90.0043 70.7698 89.8947 70.8097 89.795 70.8894C89.7153 70.9691 89.6356 71.0986 89.5558 71.278ZM87.8518 85.4484C87.8518 85.8271 87.7621 86.1061 87.5828 86.2854C87.4233 86.4449 87.1543 86.5246 86.7756 86.5246H82.381C82.0023 86.5246 81.7233 86.4449 81.5439 86.2854C81.3845 86.1061 81.3047 85.8271 81.3047 85.4484V77.556C81.3047 76.9581 81.3944 76.2705 81.5738 75.4932C81.7731 74.716 82.0721 73.8091 82.4707 72.7728L85.0716 65.9865C85.1911 65.6477 85.3705 65.3986 85.6097 65.2392C85.8688 65.0797 86.1976 65 86.5962 65H94.638C95.0167 65 95.3256 65.0797 95.5648 65.2392C95.8239 65.3986 96.0132 65.6477 96.1328 65.9865L98.7337 72.7728C99.1323 73.8091 99.4213 74.716 99.6007 75.4932C99.8 76.2705 99.8996 76.9581 99.8996 77.556V85.4484C99.8996 85.8271 99.8099 86.1061 99.6306 86.2854C99.4711 86.4449 99.2021 86.5246 98.8234 86.5246H94.3092C93.9106 86.5246 93.6116 86.4449 93.4123 86.2854C93.233 86.1061 93.1433 85.8271 93.1433 85.4484V81.263H87.8518V85.4484Z" fill="white"/>
<path d="M120.721 86.5246H110.646C110.267 86.5246 109.988 86.4449 109.809 86.2854C109.65 86.1061 109.57 85.8271 109.57 85.4484V66.0762C109.57 65.6976 109.65 65.4285 109.809 65.2691C109.988 65.0897 110.267 65 110.646 65H120.721C123.212 65 125.056 65.4983 126.251 66.4948C127.467 67.4913 128.075 69.0259 128.075 71.0986V80.426C128.075 82.4987 127.467 84.0333 126.251 85.0298C125.056 86.0264 123.212 86.5246 120.721 86.5246ZM116.356 70.71V80.8744H119.914C120.392 80.8744 120.741 80.7548 120.96 80.5157C121.199 80.2765 121.319 79.9078 121.319 79.4095V72.145C121.319 71.6467 121.199 71.288 120.96 71.0687C120.741 70.8296 120.392 70.71 119.914 70.71H116.356Z" fill="white"/>
<path d="M145.656 71.278L144.251 75.8221H148.945L147.54 71.278C147.46 71.0986 147.37 70.9691 147.271 70.8894C147.191 70.8097 147.091 70.7698 146.972 70.7698H146.224C146.105 70.7698 145.995 70.8097 145.895 70.8894C145.816 70.9691 145.736 71.0986 145.656 71.278ZM143.952 85.4484C143.952 85.8271 143.863 86.1061 143.683 86.2854C143.524 86.4449 143.255 86.5246 142.876 86.5246H138.481C138.103 86.5246 137.824 86.4449 137.644 86.2854C137.485 86.1061 137.405 85.8271 137.405 85.4484V77.556C137.405 76.9581 137.495 76.2705 137.674 75.4932C137.873 74.716 138.172 73.8091 138.571 72.7728L141.172 65.9865C141.292 65.6477 141.471 65.3986 141.71 65.2392C141.969 65.0797 142.298 65 142.697 65H150.738C151.117 65 151.426 65.0797 151.665 65.2392C151.924 65.3986 152.114 65.6477 152.233 65.9865L154.834 72.7728C155.233 73.8091 155.522 74.716 155.701 75.4932C155.9 76.2705 156 76.9581 156 77.556V85.4484C156 85.8271 155.91 86.1061 155.731 86.2854C155.572 86.4449 155.302 86.5246 154.924 86.5246H150.41C150.011 86.5246 149.712 86.4449 149.513 86.2854C149.333 86.1061 149.244 85.8271 149.244 85.4484V81.263H143.952V85.4484Z" fill="white"/>
<path fill-rule="evenodd" clip-rule="evenodd" d="M44.1798 91.7563C42.5229 91.7563 41.1798 93.0994 41.1798 94.7563V111.178C41.1798 112.835 42.5229 114.178 44.1798 114.178H136.087C137.744 114.178 139.087 112.835 139.087 111.178V94.7563C139.087 93.0994 137.744 91.7563 136.087 91.7563H44.1798ZM50.553 108.572H52.8699C53.0592 108.572 53.1938 108.533 53.2735 108.453C53.3632 108.363 53.408 108.224 53.408 108.034V105.553H55.127C56.4822 105.553 57.409 105.284 57.9072 104.746C58.4055 104.208 58.6546 103.505 58.6546 102.638V100.725C58.6546 99.8579 58.4055 99.1554 57.9072 98.6172C57.409 98.0791 56.4822 97.8101 55.127 97.8101H50.553C50.3637 97.8101 50.2242 97.8549 50.1345 97.9446C50.0547 98.0243 50.0149 98.1588 50.0149 98.3482V108.034C50.0149 108.224 50.0547 108.363 50.1345 108.453C50.2242 108.533 50.3637 108.572 50.553 108.572ZM53.3781 102.862V100.605H54.7234C55.0124 100.605 55.2017 100.68 55.2914 100.829C55.3811 100.979 55.4259 101.148 55.4259 101.338V102.13C55.4259 102.319 55.3811 102.489 55.2914 102.638C55.2017 102.788 55.0124 102.862 54.7234 102.862H53.3781ZM63.582 102.414V100.501H64.7031C64.9621 100.501 65.1365 100.57 65.2262 100.71C65.3159 100.839 65.3607 101.004 65.3607 101.203V101.711C65.3607 101.911 65.3159 102.08 65.2262 102.22C65.1365 102.349 64.9621 102.414 64.7031 102.414H63.582ZM60.7419 108.572H63.0439C63.2332 108.572 63.3677 108.533 63.4474 108.453C63.5371 108.363 63.582 108.224 63.582 108.034V105.105H65.6746C65.8839 105.105 66.0284 105.159 66.1081 105.269C66.1978 105.369 66.2427 105.528 66.2427 105.747V108.034C66.2427 108.224 66.2825 108.363 66.3622 108.453C66.4519 108.533 66.5914 108.572 66.7808 108.572H69.0977C69.287 108.572 69.4215 108.533 69.5012 108.453C69.5909 108.363 69.6358 108.224 69.6358 108.034V104.865C69.6358 104.238 69.4664 103.734 69.1276 103.356C68.7987 102.977 68.3652 102.758 67.8271 102.698C68.136 102.568 68.3503 102.359 68.4699 102.07C68.5994 101.771 68.6642 101.412 68.6642 100.994V100.306C68.6642 99.5689 68.4499 98.971 68.0214 98.5126C67.6029 98.0443 66.8356 97.8101 65.7195 97.8101H60.7419C60.5526 97.8101 60.4131 97.8549 60.3234 97.9446C60.2437 98.0243 60.2038 98.1588 60.2038 98.3482V108.034C60.2038 108.224 60.2437 108.363 60.3234 108.453C60.4131 108.533 60.5526 108.572 60.7419 108.572ZM71.6113 108.572C71.422 108.572 71.2825 108.533 71.1928 108.453C71.1131 108.363 71.0732 108.224 71.0732 108.034V106.255C71.0732 106.066 71.1131 105.932 71.1928 105.852C71.2825 105.762 71.422 105.717 71.6113 105.717H73.0911V100.695H71.6113C71.422 100.695 71.2825 100.655 71.1928 100.575C71.1131 100.486 71.0732 100.346 71.0732 100.157V98.3482C71.0732 98.1588 71.1131 98.0243 71.1928 97.9446C71.2825 97.8549 71.422 97.8101 71.6113 97.8101H77.979C78.1684 97.8101 78.3029 97.8549 78.3826 97.9446C78.4723 98.0243 78.5171 98.1588 78.5171 98.3482V100.157C78.5171 100.346 78.4723 100.486 78.3826 100.575C78.3029 100.655 78.1684 100.695 77.979 100.695H76.5291V105.717H77.979C78.1684 105.717 78.3029 105.762 78.3826 105.852C78.4723 105.932 78.5171 106.066 78.5171 106.255V108.034C78.5171 108.224 78.4723 108.363 78.3826 108.453C78.3029 108.533 78.1684 108.572 77.979 108.572H71.6113ZM80.9008 108.572H83.143C83.3323 108.572 83.4668 108.533 83.5465 108.453C83.6362 108.363 83.6811 108.224 83.6811 108.034V103.102L86.2371 106.196V108.034C86.2371 108.224 86.277 108.363 86.3567 108.453C86.4464 108.533 86.5859 108.572 86.7752 108.572H89.0174C89.2067 108.572 89.3412 108.533 89.421 108.453C89.5107 108.363 89.5555 108.224 89.5555 108.034V98.3482C89.5555 98.1588 89.5107 98.0243 89.421 97.9446C89.3412 97.8549 89.2067 97.8101 89.0174 97.8101H86.7752C86.5859 97.8101 86.4464 97.8549 86.3567 97.9446C86.277 98.0243 86.2371 98.1588 86.2371 98.3482V101.532L83.3373 98.2137C83.2077 98.0642 83.0732 97.9595 82.9337 97.8998C82.8041 97.84 82.6447 97.8101 82.4554 97.8101H80.9008C80.7115 97.8101 80.572 97.8549 80.4823 97.9446C80.4026 98.0243 80.3627 98.1588 80.3627 98.3482V108.034C80.3627 108.224 80.4026 108.363 80.4823 108.453C80.572 108.533 80.7115 108.572 80.9008 108.572ZM96.6994 108.572H94.2779C94.0886 108.572 93.9491 108.533 93.8594 108.453C93.7796 108.363 93.7398 108.224 93.7398 108.034V100.695H91.5425C91.3531 100.695 91.2136 100.655 91.124 100.575C91.0442 100.486 91.0044 100.346 91.0044 100.157V98.3482C91.0044 98.1588 91.0442 98.0243 91.124 97.9446C91.2136 97.8549 91.3531 97.8101 91.5425 97.8101H99.4348C99.6242 97.8101 99.7587 97.8549 99.8384 97.9446C99.9281 98.0243 99.973 98.1588 99.973 98.3482V100.157C99.973 100.346 99.9281 100.486 99.8384 100.575C99.7587 100.655 99.6242 100.695 99.4348 100.695H97.2375V108.034C97.2375 108.224 97.1927 108.363 97.103 108.453C97.0233 108.533 96.8888 108.572 96.6994 108.572ZM101.307 108.453C101.397 108.533 101.536 108.572 101.726 108.572H108.093C108.283 108.572 108.417 108.533 108.497 108.453C108.587 108.363 108.631 108.224 108.631 108.034V106.255C108.631 106.066 108.587 105.932 108.497 105.852C108.417 105.762 108.283 105.717 108.093 105.717H106.643V100.695H108.093C108.283 100.695 108.417 100.655 108.497 100.575C108.587 100.486 108.631 100.346 108.631 100.157V98.3482C108.631 98.1588 108.587 98.0243 108.497 97.9446C108.417 97.8549 108.283 97.8101 108.093 97.8101H101.726C101.536 97.8101 101.397 97.8549 101.307 97.9446C101.227 98.0243 101.187 98.1588 101.187 98.3482V100.157C101.187 100.346 101.227 100.486 101.307 100.575C101.397 100.655 101.536 100.695 101.726 100.695H103.205V105.717H101.726C101.536 105.717 101.397 105.762 101.307 105.852C101.227 105.932 101.187 106.066 101.187 106.255V108.034C101.187 108.224 101.227 108.363 101.307 108.453ZM113.257 108.572H111.015C110.826 108.572 110.686 108.533 110.597 108.453C110.517 108.363 110.477 108.224 110.477 108.034V98.3482C110.477 98.1588 110.517 98.0243 110.597 97.9446C110.686 97.8549 110.826 97.8101 111.015 97.8101H112.57C112.759 97.8101 112.918 97.84 113.048 97.8998C113.187 97.9595 113.322 98.0642 113.452 98.2137L116.351 101.532V98.3482C116.351 98.1588 116.391 98.0243 116.471 97.9446C116.561 97.8549 116.7 97.8101 116.889 97.8101H119.132C119.321 97.8101 119.456 97.8549 119.535 97.9446C119.625 98.0243 119.67 98.1588 119.67 98.3482V108.034C119.67 108.224 119.625 108.363 119.535 108.453C119.456 108.533 119.321 108.572 119.132 108.572H116.889C116.7 108.572 116.561 108.533 116.471 108.453C116.391 108.363 116.351 108.224 116.351 108.034V106.196L113.795 103.102V108.034C113.795 108.224 113.75 108.363 113.661 108.453C113.581 108.533 113.447 108.572 113.257 108.572ZM125.244 108.572H129.953C130.142 108.572 130.277 108.533 130.356 108.453C130.446 108.363 130.491 108.224 130.491 108.034V103.415C130.491 103.226 130.446 103.092 130.356 103.012C130.277 102.922 130.142 102.877 129.953 102.877H127.636C127.446 102.877 127.307 102.922 127.217 103.012C127.138 103.092 127.098 103.226 127.098 103.415V105.747H125.648C125.419 105.747 125.244 105.687 125.125 105.568C125.015 105.448 124.96 105.264 124.96 105.015V101.442C124.96 101.193 125.035 101.009 125.184 100.889C125.334 100.76 125.563 100.695 125.872 100.695H128.981C129.17 100.695 129.305 100.655 129.385 100.575C129.474 100.486 129.519 100.346 129.519 100.157V98.3482C129.519 98.1588 129.474 98.0243 129.385 97.9446C129.305 97.8549 129.17 97.8101 128.981 97.8101H125.244C123.999 97.8101 123.072 98.0592 122.464 98.5575C121.866 99.0557 121.567 99.823 121.567 100.859V105.523C121.567 106.559 121.866 107.327 122.464 107.825C123.072 108.323 123.999 108.572 125.244 108.572Z" fill="white"/>
</g>
</svg>
