<svg width="180" height="75" viewBox="0 0 180 75" fill="none" xmlns="http://www.w3.org/2000/svg">
<path d="M13.3914 17.6L11.5114 23.68H17.7914L15.9114 17.6C15.8047 17.36 15.6847 17.1867 15.5514 17.08C15.4447 16.9733 15.3114 16.92 15.1514 16.92H14.1514C13.9914 16.92 13.8447 16.9733 13.7114 17.08C13.6047 17.1867 13.4981 17.36 13.3914 17.6ZM11.1114 36.56C11.1114 37.0667 10.9914 37.44 10.7514 37.68C10.5381 37.8933 10.1781 38 9.67141 38H3.79141C3.28474 38 2.91141 37.8933 2.67141 37.68C2.45807 37.44 2.35141 37.0667 2.35141 36.56V26C2.35141 25.2 2.47141 24.28 2.71141 23.24C2.97807 22.2 3.37807 20.9867 3.91141 19.6L7.39141 10.52C7.55141 10.0667 7.79141 9.73333 8.11141 9.52C8.45807 9.30667 8.89807 9.2 9.43141 9.2H20.1914C20.6981 9.2 21.1114 9.30667 21.4314 9.52C21.7781 9.73333 22.0314 10.0667 22.1914 10.52L25.6714 19.6C26.2047 20.9867 26.5914 22.2 26.8314 23.24C27.0981 24.28 27.2314 25.2 27.2314 26V36.56C27.2314 37.0667 27.1114 37.44 26.8714 37.68C26.6581 37.8933 26.2981 38 25.7914 38H19.7514C19.2181 38 18.8181 37.8933 18.5514 37.68C18.3114 37.44 18.1914 37.0667 18.1914 36.56V30.96H11.1114V36.56ZM47.6102 38H41.6102C41.1035 38 40.7302 37.8933 40.4902 37.68C40.2768 37.44 40.1702 37.0667 40.1702 36.56V10.64C40.1702 10.1333 40.2768 9.77333 40.4902 9.56C40.7302 9.32 41.1035 9.2 41.6102 9.2H45.7702C46.2768 9.2 46.7035 9.28 47.0502 9.44C47.4235 9.6 47.7835 9.88 48.1302 10.28L55.8902 19.16V10.64C55.8902 10.1333 55.9968 9.77333 56.2102 9.56C56.4502 9.32 56.8235 9.2 57.3302 9.2H63.3302C63.8368 9.2 64.1968 9.32 64.4102 9.56C64.6502 9.77333 64.7702 10.1333 64.7702 10.64V36.56C64.7702 37.0667 64.6502 37.44 64.4102 37.68C64.1968 37.8933 63.8368 38 63.3302 38H57.3302C56.8235 38 56.4502 37.8933 56.2102 37.68C55.9968 37.44 55.8902 37.0667 55.8902 36.56V31.64L49.0502 23.36V36.56C49.0502 37.0667 48.9302 37.44 48.6902 37.68C48.4768 37.8933 48.1168 38 47.6102 38ZM88.7273 17.6L86.8473 23.68H93.1273L91.2473 17.6C91.1407 17.36 91.0207 17.1867 90.8873 17.08C90.7807 16.9733 90.6473 16.92 90.4873 16.92H89.4873C89.3273 16.92 89.1807 16.9733 89.0473 17.08C88.9407 17.1867 88.834 17.36 88.7273 17.6ZM86.4473 36.56C86.4473 37.0667 86.3273 37.44 86.0873 37.68C85.874 37.8933 85.514 38 85.0073 38H79.1273C78.6207 38 78.2473 37.8933 78.0073 37.68C77.794 37.44 77.6873 37.0667 77.6873 36.56V26C77.6873 25.2 77.8073 24.28 78.0473 23.24C78.314 22.2 78.714 20.9867 79.2473 19.6L82.7273 10.52C82.8873 10.0667 83.1273 9.73333 83.4473 9.52C83.794 9.30667 84.234 9.2 84.7673 9.2H95.5273C96.034 9.2 96.4473 9.30667 96.7673 9.52C97.114 9.73333 97.3673 10.0667 97.5273 10.52L101.007 19.6C101.541 20.9867 101.927 22.2 102.167 23.24C102.434 24.28 102.567 25.2 102.567 26V36.56C102.567 37.0667 102.447 37.44 102.207 37.68C101.994 37.8933 101.634 38 101.127 38H95.0873C94.554 38 94.154 37.8933 93.8873 37.68C93.6473 37.44 93.5273 37.0667 93.5273 36.56V30.96H86.4473V36.56ZM130.426 38H116.946C116.439 38 116.066 37.8933 115.826 37.68C115.613 37.44 115.506 37.0667 115.506 36.56V10.64C115.506 10.1333 115.613 9.77333 115.826 9.56C116.066 9.32 116.439 9.2 116.946 9.2H130.426C133.759 9.2 136.226 9.86667 137.826 11.2C139.453 12.5333 140.266 14.5867 140.266 17.36V29.84C140.266 32.6133 139.453 34.6667 137.826 36C136.226 37.3333 133.759 38 130.426 38ZM124.586 16.84V30.44H129.346C129.986 30.44 130.453 30.28 130.746 29.96C131.066 29.64 131.226 29.1467 131.226 28.48V18.76C131.226 18.0933 131.066 17.6133 130.746 17.32C130.453 17 129.986 16.84 129.346 16.84H124.586ZM163.79 17.6L161.91 23.68H168.19L166.31 17.6C166.203 17.36 166.083 17.1867 165.95 17.08C165.843 16.9733 165.71 16.92 165.55 16.92H164.55C164.39 16.92 164.243 16.9733 164.11 17.08C164.003 17.1867 163.897 17.36 163.79 17.6ZM161.51 36.56C161.51 37.0667 161.39 37.44 161.15 37.68C160.937 37.8933 160.577 38 160.07 38H154.19C153.683 38 153.31 37.8933 153.07 37.68C152.857 37.44 152.75 37.0667 152.75 36.56V26C152.75 25.2 152.87 24.28 153.11 23.24C153.377 22.2 153.777 20.9867 154.31 19.6L157.79 10.52C157.95 10.0667 158.19 9.73333 158.51 9.52C158.857 9.30667 159.297 9.2 159.83 9.2H170.59C171.097 9.2 171.51 9.30667 171.83 9.52C172.177 9.73333 172.43 10.0667 172.59 10.52L176.07 19.6C176.603 20.9867 176.99 22.2 177.23 23.24C177.497 24.28 177.63 25.2 177.63 26V36.56C177.63 37.0667 177.51 37.44 177.27 37.68C177.057 37.8933 176.697 38 176.19 38H170.15C169.617 38 169.217 37.8933 168.95 37.68C168.71 37.44 168.59 37.0667 168.59 36.56V30.96H161.51V36.56Z" fill="white"/>
<path fill-rule="evenodd" clip-rule="evenodd" d="M27 45C25.3431 45 24 46.3431 24 48V72C24 73.6569 25.3431 75 27 75H152C153.657 75 155 73.6569 155 72V48C155 46.3431 153.657 45 152 45H27ZM36.5414 67.5H39.6414C39.8947 67.5 40.0747 67.4467 40.1814 67.34C40.3014 67.22 40.3614 67.0333 40.3614 66.78V63.46H42.6614C44.4747 63.46 45.7147 63.1 46.3814 62.38C47.0481 61.66 47.3814 60.72 47.3814 59.56V57C47.3814 55.84 47.0481 54.9 46.3814 54.18C45.7147 53.46 44.4747 53.1 42.6614 53.1H36.5414C36.2881 53.1 36.1014 53.16 35.9814 53.28C35.8747 53.3867 35.8214 53.5667 35.8214 53.82V66.78C35.8214 67.0333 35.8747 67.22 35.9814 67.34C36.1014 67.4467 36.2881 67.5 36.5414 67.5ZM40.3214 59.86V56.84H42.1214C42.5081 56.84 42.7614 56.94 42.8814 57.14C43.0014 57.34 43.0614 57.5667 43.0614 57.82V58.88C43.0614 59.1333 43.0014 59.36 42.8814 59.56C42.7614 59.76 42.5081 59.86 42.1214 59.86H40.3214ZM53.9742 59.26V56.7H55.4742C55.8209 56.7 56.0542 56.7933 56.1742 56.98C56.2942 57.1533 56.3542 57.3733 56.3542 57.64V58.32C56.3542 58.5867 56.2942 58.8133 56.1742 59C56.0542 59.1733 55.8209 59.26 55.4742 59.26H53.9742ZM50.1742 67.5H53.2542C53.5076 67.5 53.6876 67.4467 53.7942 67.34C53.9142 67.22 53.9742 67.0333 53.9742 66.78V62.86H56.7742C57.0542 62.86 57.2476 62.9333 57.3542 63.08C57.4742 63.2133 57.5342 63.4267 57.5342 63.72V66.78C57.5342 67.0333 57.5876 67.22 57.6942 67.34C57.8142 67.4467 58.0009 67.5 58.2542 67.5H61.3542C61.6076 67.5 61.7876 67.4467 61.8942 67.34C62.0142 67.22 62.0742 67.0333 62.0742 66.78V62.54C62.0742 61.7 61.8476 61.0267 61.3942 60.52C60.9542 60.0133 60.3742 59.72 59.6542 59.64C60.0676 59.4667 60.3542 59.1867 60.5142 58.8C60.6876 58.4 60.7742 57.92 60.7742 57.36V56.44C60.7742 55.4533 60.4876 54.6533 59.9142 54.04C59.3542 53.4133 58.3276 53.1 56.8342 53.1H50.1742C49.9209 53.1 49.7342 53.16 49.6142 53.28C49.5076 53.3867 49.4542 53.5667 49.4542 53.82V66.78C49.4542 67.0333 49.5076 67.22 49.6142 67.34C49.7342 67.4467 49.9209 67.5 50.1742 67.5ZM64.1575 67.34C64.2775 67.4467 64.4642 67.5 64.7175 67.5H73.2375C73.4908 67.5 73.6708 67.4467 73.7775 67.34C73.8975 67.22 73.9575 67.0333 73.9575 66.78V64.4C73.9575 64.1467 73.8975 63.9667 73.7775 63.86C73.6708 63.74 73.4908 63.68 73.2375 63.68H71.2975V56.96H73.2375C73.4908 56.96 73.6708 56.9067 73.7775 56.8C73.8975 56.68 73.9575 56.4933 73.9575 56.24V53.82C73.9575 53.5667 73.8975 53.3867 73.7775 53.28C73.6708 53.16 73.4908 53.1 73.2375 53.1H64.7175C64.4642 53.1 64.2775 53.16 64.1575 53.28C64.0508 53.3867 63.9975 53.5667 63.9975 53.82V56.24C63.9975 56.4933 64.0508 56.68 64.1575 56.8C64.2775 56.9067 64.4642 56.96 64.7175 56.96H66.6975V63.68H64.7175C64.4642 63.68 64.2775 63.74 64.1575 63.86C64.0508 63.9667 63.9975 64.1467 63.9975 64.4V66.78C63.9975 67.0333 64.0508 67.22 64.1575 67.34ZM77.1469 67.5H80.1469C80.4002 67.5 80.5802 67.4467 80.6869 67.34C80.8069 67.22 80.8669 67.0333 80.8669 66.78V60.18L84.2869 64.32V66.78C84.2869 67.0333 84.3402 67.22 84.4469 67.34C84.5669 67.4467 84.7535 67.5 85.0069 67.5H88.0069C88.2602 67.5 88.4402 67.4467 88.5469 67.34C88.6669 67.22 88.7269 67.0333 88.7269 66.78V53.82C88.7269 53.5667 88.6669 53.3867 88.5469 53.28C88.4402 53.16 88.2602 53.1 88.0069 53.1H85.0069C84.7535 53.1 84.5669 53.16 84.4469 53.28C84.3402 53.3867 84.2869 53.5667 84.2869 53.82V58.08L80.4069 53.64C80.2335 53.44 80.0535 53.3 79.8669 53.22C79.6935 53.14 79.4802 53.1 79.2269 53.1H77.1469C76.8935 53.1 76.7069 53.16 76.5869 53.28C76.4802 53.3867 76.4269 53.5667 76.4269 53.82V66.78C76.4269 67.0333 76.4802 67.22 76.5869 67.34C76.7069 67.4467 76.8935 67.5 77.1469 67.5ZM95.0455 67.5H98.2855C98.5388 67.5 98.7188 67.4467 98.8255 67.34C98.9455 67.22 99.0055 67.0333 99.0055 66.78V56.96H101.945C102.199 56.96 102.379 56.9067 102.485 56.8C102.605 56.68 102.665 56.4933 102.665 56.24V53.82C102.665 53.5667 102.605 53.3867 102.485 53.28C102.379 53.16 102.199 53.1 101.945 53.1H91.3855C91.1321 53.1 90.9455 53.16 90.8255 53.28C90.7188 53.3867 90.6655 53.5667 90.6655 53.82V56.24C90.6655 56.4933 90.7188 56.68 90.8255 56.8C90.9455 56.9067 91.1321 56.96 91.3855 56.96H94.3255V66.78C94.3255 67.0333 94.3788 67.22 94.4855 67.34C94.6055 67.4467 94.7921 67.5 95.0455 67.5ZM104.45 67.34C104.57 67.4467 104.757 67.5 105.01 67.5H113.53C113.784 67.5 113.964 67.4467 114.07 67.34C114.19 67.22 114.25 67.0333 114.25 66.78V64.4C114.25 64.1467 114.19 63.9667 114.07 63.86C113.964 63.74 113.784 63.68 113.53 63.68H111.59V56.96H113.53C113.784 56.96 113.964 56.9067 114.07 56.8C114.19 56.68 114.25 56.4933 114.25 56.24V53.82C114.25 53.5667 114.19 53.3867 114.07 53.28C113.964 53.16 113.784 53.1 113.53 53.1H105.01C104.757 53.1 104.57 53.16 104.45 53.28C104.344 53.3867 104.29 53.5667 104.29 53.82V56.24C104.29 56.4933 104.344 56.68 104.45 56.8C104.57 56.9067 104.757 56.96 105.01 56.96H106.99V63.68H105.01C104.757 63.68 104.57 63.74 104.45 63.86C104.344 63.9667 104.29 64.1467 104.29 64.4V66.78C104.29 67.0333 104.344 67.22 104.45 67.34ZM117.44 67.5H120.44C120.693 67.5 120.873 67.4467 120.98 67.34C121.1 67.22 121.16 67.0333 121.16 66.78V60.18L124.58 64.32V66.78C124.58 67.0333 124.633 67.22 124.74 67.34C124.86 67.4467 125.047 67.5 125.3 67.5H128.3C128.553 67.5 128.733 67.4467 128.84 67.34C128.96 67.22 129.02 67.0333 129.02 66.78V53.82C129.02 53.5667 128.96 53.3867 128.84 53.28C128.733 53.16 128.553 53.1 128.3 53.1H125.3C125.047 53.1 124.86 53.16 124.74 53.28C124.633 53.3867 124.58 53.5667 124.58 53.82V58.08L120.7 53.64C120.527 53.44 120.347 53.3 120.16 53.22C119.987 53.14 119.773 53.1 119.52 53.1H117.44C117.187 53.1 117 53.16 116.88 53.28C116.773 53.3867 116.72 53.5667 116.72 53.82V66.78C116.72 67.0333 116.773 67.22 116.88 67.34C117 67.4467 117.187 67.5 117.44 67.5ZM136.478 67.5H142.778C143.032 67.5 143.212 67.4467 143.318 67.34C143.438 67.22 143.498 67.0333 143.498 66.78V60.6C143.498 60.3467 143.438 60.1667 143.318 60.06C143.212 59.94 143.032 59.88 142.778 59.88H139.678C139.425 59.88 139.238 59.94 139.118 60.06C139.012 60.1667 138.958 60.3467 138.958 60.6V63.72H137.018C136.712 63.72 136.478 63.64 136.318 63.48C136.172 63.32 136.098 63.0733 136.098 62.74V57.96C136.098 57.6267 136.198 57.38 136.398 57.22C136.598 57.0467 136.905 56.96 137.318 56.96H141.478C141.732 56.96 141.912 56.9067 142.018 56.8C142.138 56.68 142.198 56.4933 142.198 56.24V53.82C142.198 53.5667 142.138 53.3867 142.018 53.28C141.912 53.16 141.732 53.1 141.478 53.1H136.478C134.812 53.1 133.572 53.4333 132.758 54.1C131.958 54.7667 131.558 55.7933 131.558 57.18V63.42C131.558 64.8067 131.958 65.8333 132.758 66.5C133.572 67.1667 134.812 67.5 136.478 67.5Z" fill="white"/>
</svg>
